<?xml version="1.0" encoding="UTF-8" standalone="no"?>
<!-- Created with Inkscape (http://www.inkscape.org/) -->

<svg
   width="146.26129mm"
   height="30.972473mm"
   viewBox="0 0 146.26129 30.972473"
   version="1.1"
   id="svg5"
   xml:space="preserve"
   xmlns:inkscape="http://www.inkscape.org/namespaces/inkscape"
   xmlns:sodipodi="http://sodipodi.sourceforge.net/DTD/sodipodi-0.dtd"
   xmlns="http://www.w3.org/2000/svg"
   xmlns:svg="http://www.w3.org/2000/svg"><sodipodi:namedview
     id="namedview7"
     pagecolor="#ffffff"
     bordercolor="#000000"
     borderopacity="0.25"
     inkscape:showpageshadow="2"
     inkscape:pageopacity="0.0"
     inkscape:pagecheckerboard="0"
     inkscape:deskcolor="#d1d1d1"
     inkscape:document-units="mm"
     showgrid="false"
     inkscape:zoom="0.40744401"
     inkscape:cx="326.42522"
     inkscape:cy="225.79789"
     inkscape:window-width="1309"
     inkscape:window-height="456"
     inkscape:window-x="0"
     inkscape:window-y="38"
     inkscape:window-maximized="0"
     inkscape:current-layer="layer1" /><defs
     id="defs2" /><g
     inkscape:label="Layer 1"
     inkscape:groupmode="layer"
     id="layer1"
     transform="translate(-0.02205486,-1.0371993)"><g
       id="g57"
       transform="matrix(0.0975511,0,0,0.0975511,-20.495868,-36.155133)"
       inkscape:export-filename="g57.svg"
       inkscape:export-xdpi="96"
       inkscape:export-ydpi="96">
	<polygon
   class="st1"
   points="399.43,677.52 399.43,501.02 349,381.26 349,557.76 "
   id="polygon11" />
	<polygon
   class="st1"
   points="248.07,646 248.07,507.42 210.33,507.42 210.33,696.43 380.52,696.43 "
   id="polygon13" />
	<polygon
   class="st1"
   points="317.49,586.12 317.49,475.81 279.67,437.99 279.67,614.48 386.82,683.82 "
   id="polygon15" />
	<polygon
   class="st1"
   points="576,507.42 576,646 443.55,696.43 613.74,696.43 613.74,507.42 "
   id="polygon17" />
	<polygon
   class="st1"
   points="424.64,501.02 424.64,677.52 475.07,557.76 475.07,381.26 "
   id="polygon19" />
	<polygon
   class="st1"
   points="544.41,614.48 544.41,437.99 506.59,475.81 506.59,586.12 437.25,683.82 "
   id="polygon21" />
	<path
   class="st1"
   d="m 866.06,491.37 h 0.05 c 9.06,0 16.83,-1.74 23.3,-5.22 6.47,-3.48 11.4,-8.27 14.79,-14.38 3.39,-6.1 5.09,-13.13 5.09,-21.08 0,-8.32 -1.74,-15.55 -5.22,-21.68 -3.48,-6.13 -8.58,-10.87 -15.3,-14.19 -6.72,-3.33 -14.79,-4.99 -24.22,-4.99 h -63.48 v 133.32 h 26.81 v -51.78 h 22.15 l 29.49,51.78 h 30.05 l -28.31,-47.48 z m -38.18,-20.16 v -40.77 h 30.56 c 4.68,0 8.81,0.69 12.39,2.08 3.57,1.39 6.41,3.61 8.51,6.66 2.09,3.05 3.14,7.01 3.14,11.88 0,7.03 -2.23,12.14 -6.7,15.35 -4.47,3.21 -10.53,4.81 -18.17,4.81 h -29.73 z"
   id="path23" />
	<path
   class="st1"
   d="m 1282.99,644.65 h 0.05 c 9.06,0 16.83,-1.74 23.3,-5.22 6.47,-3.48 11.4,-8.27 14.79,-14.38 3.39,-6.1 5.09,-13.13 5.09,-21.08 0,-8.32 -1.74,-15.55 -5.22,-21.68 -3.48,-6.13 -8.58,-10.87 -15.3,-14.19 -6.72,-3.33 -14.79,-4.99 -24.23,-4.99 H 1218 v 133.32 h 26.81 v -51.78 h 22.15 l 29.49,51.78 h 30.05 l -28.31,-47.48 z m -38.18,-20.15 v -40.77 h 30.56 c 4.68,0 8.81,0.69 12.39,2.08 3.57,1.39 6.41,3.61 8.51,6.66 2.09,3.05 3.14,7.01 3.14,11.88 0,7.03 -2.23,12.14 -6.7,15.35 -4.47,3.21 -10.53,4.81 -18.17,4.81 h -29.73 z"
   id="path25" />
	<rect
   x="926.59003"
   y="409.91"
   class="st1"
   width="26.809999"
   height="133.32001"
   id="rect27" />
	<polygon
   class="st1"
   points="998.19,543.14 998.19,486.45 1052.67,486.45 1052.67,465.83 998.19,465.83 998.19,431.92 1057.27,431.92 1057.27,409.82 972.03,409.82 972.03,543.14 "
   id="polygon29" />
	<polygon
   class="st1"
   points="1154.55,486.45 1154.55,465.83 1100.08,465.83 1100.08,431.92 1159.15,431.92 1159.15,409.82 1073.91,409.82 1073.91,543.14 1100.08,543.14 1100.08,486.45 "
   id="polygon31" />
	<rect
   x="1175.8"
   y="409.91"
   class="st1"
   width="26.809999"
   height="133.32001"
   id="rect33" />
	<polygon
   class="st1"
   points="1284.9,543.14 1284.9,432.29 1324.56,432.29 1324.56,409.82 1219.25,409.82 1219.25,432.29 1258.92,432.29 1258.92,543.14 "
   id="polygon35" />
	<polygon
   class="st1"
   points="1451.99,543.14 1451.99,409.82 1425.91,409.82 1425.91,464.39 1367.37,464.39 1367.37,409.82 1341.21,409.82 1341.21,543.14 1367.37,543.14 1367.37,487.17 1425.91,487.17 1425.91,543.14 "
   id="polygon37" />
	<path
   class="st1"
   d="m 756.25,645.3 c 0,10.05 -2.42,17.66 -7.26,22.84 -4.84,5.18 -12.31,7.77 -22.42,7.77 -10.05,0 -17.52,-2.59 -22.42,-7.77 -4.9,-5.18 -7.35,-12.79 -7.35,-22.84 v -82.2 h -26.72 v 83.77 c 0,10.6 2.13,19.79 6.38,27.55 4.25,7.77 10.6,13.75 19.05,17.94 8.44,4.19 18.8,6.29 31.07,6.29 12.33,0 22.68,-2.1 31.07,-6.29 8.38,-4.19 14.72,-10.15 19,-17.89 4.28,-7.73 6.43,-16.93 6.43,-27.6 V 563.1 h -26.81 v 82.2 z"
   id="path39" />
	<path
   class="st1"
   d="m 883.63,654.27 h -0.37 c -2.22,-4.25 -4.47,-8.2 -6.75,-11.83 l -49,-79.33 h -26.44 v 133.32 h 25.61 v -90.79 h 0.37 c 2.16,4.01 4.41,7.89 6.75,11.65 l 49,79.14 h 26.35 V 563.1 h -25.52 z"
   id="path41" />
	<rect
   x="926.59003"
   y="563.20001"
   class="st1"
   width="26.809999"
   height="133.32001"
   id="rect43" />
	<path
   class="st1"
   d="m 1038.49,654.45 c -1.73,5.42 -3.39,11.46 -4.99,18.12 h -0.93 c -1.66,-6.66 -3.33,-12.7 -4.99,-18.12 L 998.71,563.1 h -28.48 l 46.35,133.32 h 32.91 l 46.26,-133.32 h -28.57 z"
   id="path45" />
	<polygon
   class="st1"
   points="1201.02,585.2 1201.02,563.1 1110.6,563.1 1110.6,696.43 1201.02,696.43 1201.02,674.33 1136.76,674.33 1136.76,639.71 1193.07,639.71 1193.07,619.09 1136.76,619.09 1136.76,585.2 "
   id="polygon47" />
	<path
   class="st1"
   d="m 1418.07,624.17 c -6.9,-2.87 -15.87,-5.35 -26.9,-7.44 -6.16,-1.42 -10.99,-2.79 -14.47,-4.11 -3.48,-1.33 -6.01,-3.05 -7.58,-5.18 -1.57,-2.13 -2.36,-4.88 -2.36,-8.28 0,-3.33 0.86,-6.22 2.59,-8.69 1.73,-2.46 4.25,-4.36 7.58,-5.69 3.33,-1.33 7.21,-1.99 11.65,-1.99 4.56,0 8.55,0.83 11.97,2.5 3.42,1.66 6.16,4.12 8.23,7.35 2.06,3.24 3.31,7.04 3.75,11.42 l 26.07,-3.14 c -1.05,-8.51 -3.64,-15.73 -7.77,-21.68 -4.13,-5.95 -9.75,-10.5 -16.87,-13.64 -7.12,-3.14 -15.43,-4.71 -24.92,-4.71 -10.11,0 -18.85,1.66 -26.21,4.99 -7.37,3.33 -13.01,8.09 -16.92,14.29 -3.91,6.19 -5.87,13.64 -5.87,22.33 0,8.14 1.8,14.72 5.41,19.74 3.61,5.02 8.77,8.99 15.49,11.88 6.72,2.9 15.38,5.3 25.98,7.21 6.1,1.11 10.97,2.42 14.61,3.93 3.64,1.51 6.36,3.44 8.18,5.78 1.82,2.34 2.73,5.3 2.73,8.88 0,3.64 -0.97,6.74 -2.91,9.29 -1.94,2.56 -4.62,4.47 -8.05,5.73 -3.42,1.26 -7.57,1.9 -12.43,1.9 -5.43,0 -10.03,-0.98 -13.82,-2.96 -3.79,-1.97 -6.79,-4.71 -9.01,-8.23 -2.22,-3.51 -3.6,-7.55 -4.16,-12.11 l -26.54,3.24 c 1.29,9 4.14,16.6 8.55,22.79 4.41,6.19 10.37,10.94 17.89,14.24 7.52,3.3 16.55,4.95 27.09,4.95 10.48,0 19.51,-1.56 27.09,-4.67 7.58,-3.11 13.44,-7.78 17.57,-14.01 4.13,-6.22 6.2,-13.9 6.2,-23.02 0,-8.51 -1.91,-15.39 -5.73,-20.66 -3.85,-5.29 -9.21,-9.36 -16.11,-12.23 z"
   id="path49" />
	<rect
   x="1453.97"
   y="563.20001"
   class="st1"
   width="26.809999"
   height="133.32001"
   id="rect51" />
	<path
   class="st1"
   d="m 1681.38,563.1 -29.59,52.79 c -0.68,1.23 -1.31,2.5 -1.9,3.79 -0.59,1.3 -1.1,2.44 -1.53,3.42 H 1648 c -0.55,-1.05 -1.14,-2.22 -1.76,-3.51 -0.62,-1.3 -1.29,-2.56 -2.03,-3.79 l -29.49,-52.7 h -12.18 -16.21 -89.1 v 22.47 h 39.66 v 110.86 h 25.98 V 585.57 h 36.8 l 35.47,59.73 v 51.13 h 26.07 v -51.41 l 48.45,-81.92 z"
   id="path53" />
	<path
   class="st1"
   d="m 692.94,537.03 c 9.07,5.55 19.78,8.33 32.12,8.33 10.61,0 19.41,-1.8 26.39,-5.42 6.46,-3.34 11.75,-8.26 15.88,-14.75 0.33,-0.52 -6.9,18.04 -6.9,18.04 h 22.5 v -72.02 h -55.36 v 20 h 29.35 c -0.8,11.29 -3.69,18.87 -8.66,23.84 -4.97,4.97 -12.05,7.45 -21.25,7.45 -7.47,0 -13.79,-1.79 -18.98,-5.37 -5.18,-3.58 -9.09,-8.76 -11.71,-15.55 -2.62,-6.79 -3.93,-15.06 -3.93,-24.81 0,-9.63 1.28,-17.9 3.84,-24.81 2.56,-6.91 6.39,-12.22 11.48,-15.92 5.09,-3.7 11.43,-5.55 19.03,-5.55 5.55,0 10.31,0.96 14.26,2.87 3.95,1.91 7.18,4.72 9.67,8.42 2.5,3.7 4.43,8.33 5.79,13.89 l 25.27,-4.72 c -2.04,-9.19 -5.43,-17.02 -10.18,-23.47 -4.75,-6.45 -10.86,-11.37 -18.33,-14.77 -7.47,-3.39 -16.17,-5.09 -26.11,-5.09 -12.96,0 -24.13,2.87 -33.51,8.61 -9.38,5.74 -16.52,13.84 -21.43,24.3 -4.91,10.46 -7.36,22.63 -7.36,36.52 0,13.89 2.42,25.97 7.27,36.24 4.83,10.27 11.79,18.19 20.86,23.74 z"
   id="path55" />
</g></g><style
     type="text/css"
     id="style9">
	.st0{fill:#FFFFFF;}
	.st1{fill:#E51F30;}
</style></svg>
