<?xml version="1.0" encoding="UTF-8" standalone="no"?>
<svg
   id="Layer_3"
   viewBox="0 0 160 50"
   version="1.1"
   sodipodi:docname="ethos.svg"
   width="160"
   height="50"
   inkscape:version="1.2.1 (9c6d41e410, 2022-07-14)"
   xmlns:inkscape="http://www.inkscape.org/namespaces/inkscape"
   xmlns:sodipodi="http://sodipodi.sourceforge.net/DTD/sodipodi-0.dtd"
   xmlns="http://www.w3.org/2000/svg"
   xmlns:svg="http://www.w3.org/2000/svg">
  <sodipodi:namedview
     id="namedview186"
     pagecolor="#ffffff"
     bordercolor="#000000"
     borderopacity="0.25"
     inkscape:showpageshadow="2"
     inkscape:pageopacity="0.0"
     inkscape:pagecheckerboard="0"
     inkscape:deskcolor="#d1d1d1"
     showgrid="false"
     inkscape:zoom="4.6574922"
     inkscape:cx="199.67828"
     inkscape:cy="16.317795"
     inkscape:window-width="3440"
     inkscape:window-height="1377"
     inkscape:window-x="1912"
     inkscape:window-y="-8"
     inkscape:window-maximized="1"
     inkscape:current-layer="Layer_3" />
  <defs
     id="defs97">
    <style
       id="style95">.cls-1{fill:#fcb24b;}.cls-2{fill:#2f6582;}</style>
  </defs>
  <g
     id="Layer_11"
     transform="matrix(0.12465257,0,0,0.12465257,-6.9055914,-15.980657)">
    <circle
       class="cls-1"
       cx="428.64001"
       cy="328.51001"
       r="26.440001"
       id="circle150" />
    <g
       id="g168">
      <circle
         class="cls-1"
         cx="257.35999"
         cy="157.69"
         r="26.440001"
         id="circle152" />
      <circle
         class="cls-1"
         cx="257.35999"
         cy="499.34"
         r="26.440001"
         id="circle154" />
      <circle
         class="cls-1"
         cx="86.540001"
         cy="328.51001"
         r="26.440001"
         id="circle156" />
      <g
         id="g166">
        <circle
           class="cls-1"
           cx="137.33"
           cy="207.52"
           r="26.440001"
           id="circle158" />
        <circle
           class="cls-1"
           cx="378.91"
           cy="449.10001"
           r="26.440001"
           id="circle160" />
        <circle
           class="cls-1"
           cx="378.91"
           cy="207.52"
           r="26.440001"
           id="circle162" />
        <circle
           class="cls-1"
           cx="137.33"
           cy="449.10001"
           r="26.440001"
           id="circle164" />
      </g>
    </g>
    <circle
       class="cls-1"
       cx="257.72"
       cy="328.78"
       r="95.580002"
       id="circle170" />
  </g>
  <g
     id="g183"
     transform="matrix(0.12465257,0,0,0.12465257,-6.9055914,-16.2843)">
    <path
       class="cls-2"
       d="M 583,345.81 H 449.95 c 6.37,24.06 26.19,36.8 50.95,36.8 20.52,0 34.68,-10.97 39.99,-17.69 l 36.09,21.23 c -14.51,20.17 -42.11,36.45 -76.08,36.45 -59.45,0 -98.72,-39.63 -98.72,-94.12 0,-54.49 42.11,-94.12 91.65,-94.12 54.14,0 97.31,40.69 89.17,111.46 z m -43.88,-34.68 c -4.6,-23.35 -20.52,-36.8 -44.59,-36.8 -21.94,0 -39.28,13.8 -44.59,36.8 h 89.17 z"
       id="path173" />
    <path
       class="cls-2"
       d="m 668.63,279.64 v 65.46 c 0,20.52 2.83,32.55 27.6,32.55 3.18,0 7.43,-0.35 10.62,-0.71 v 41.05 c -4.6,1.42 -9.55,2.48 -18.75,2.48 -46,0 -64.4,-30.78 -64.4,-67.94 v -72.89 h -25.48 v -41.05 h 25.48 v -37.51 h 44.94 v 37.51 h 38.22 v 41.05 h -38.22 z"
       id="path175" />
    <path
       class="cls-2"
       d="M 906.77,309.01 V 418 h -44.94 v -99.79 c 0,-23 -9.55,-40.34 -35.03,-40.34 -25.48,0 -38.22,19.82 -38.22,40.34 V 418 H 744 V 170.3 h 44.58 v 90.23 c 9.91,-14.51 26.18,-26.19 52.37,-26.19 45.29,0 65.82,36.8 65.82,74.66 z"
       id="path177" />
    <path
       class="cls-2"
       d="m 1127.92,328.47 c 0,52.37 -40.69,94.12 -94.83,94.12 -54.14,0 -94.48,-41.75 -94.48,-94.12 0,-52.37 40.69,-94.12 94.48,-94.12 53.79,0 94.83,41.4 94.83,94.12 z m -46,0 c 0,-27.95 -18.75,-50.95 -48.83,-50.95 -30.08,0 -48.48,23 -48.48,50.95 0,27.95 18.75,50.96 48.48,50.96 29.73,0 48.83,-23 48.83,-50.96 z"
       id="path179" />
    <path
       class="cls-2"
       d="m 1297.06,362.79 c 0,35.39 -25.83,59.8 -76.08,59.8 -34.32,0 -69,-13.8 -77.14,-43.88 l 43.17,-13.45 c 1.42,7.43 8.49,19.46 34.68,19.46 18.75,0 29.37,-6.72 29.37,-18.75 0,-16.98 -25.83,-16.28 -47.06,-20.88 -34.68,-7.08 -52.37,-23.71 -52.37,-54.49 0,-33.97 28.31,-56.26 70.42,-56.26 30.79,0 61.22,15.22 68.65,46.35 l -40.69,9.91 c -2.12,-9.2 -10.97,-18.4 -27.95,-18.4 -13.09,0 -26.54,4.95 -26.54,18.4 0,15.92 24.06,16.99 38.22,20.17 43.88,9.55 63.34,21.58 63.34,52.02 z"
       id="path181" />
  </g>
</svg>
